{"asset":{"version":"2.0","generator":"Unity 2022.3.22f1 glTFast 6.4.0"},"nodes":[{"name":"Bone019","translation":[-0.0447194465,-9.47763E-09,1.505404E-08],"rotation":[1.0089326E-06,-7.45009965E-09,4.76837158E-07,1]},{"name":"Bone020","translation":[0.016888313,-5.996985E-07,-0.0383724757],"rotation":[-6.24261838E-06,-0.179411262,6.755246E-07,0.9837742]},{"name":"Bone018","children":[0,1],"translation":[-0.0489211,-1.46710477E-10,-1.7183174E-08],"rotation":[4.993825E-06,-3.722909E-09,4.76837158E-07,1]},{"name":"Bone021","translation":[-0.0258076862,2.30298158E-09,0.0404559076],"rotation":[-1.27495355E-06,0.08920162,2.12716014E-08,0.9960136]},{"name":"Bone027","translation":[0.00360322953,-2.05963218E-07,-0.0455739237],"rotation":[0,-0.49178654,0,0.8707158]},{"name":"Bone017","children":[2,3,4],"translation":[-0.05930341,4.8285635E-08,-3.00616865E-10],"rotation":[6.903115E-07,1.86255478E-09,-1.30973021E-07,1],"scale":[0.9999998,0.9999998,1]},{"name":"Bone022","translation":[-0.00688435556,-9.73141852E-08,-0.0469849631],"rotation":[-2.06142175E-07,-0.7003871,5.43299734E-07,0.713763237]},{"name":"Bone023","translation":[-0.006900396,-0.0061076167,0.0394422933],"rotation":[0.0396152474,0.198182121,0.06595435,0.977140963]},{"name":"Bone025","translation":[-0.00690041529,0.006107648,0.0394422673],"rotation":[-0.0659540147,-0.9771409,0.0396175422,0.198182076],"scale":[-1,-1,-1]},{"name":"Bone016","children":[5,6,7,8],"translation":[-0.04798731,4.56959839E-08,1.04716235E-14],"rotation":[3.18756747E-07,7.450581E-09,-2.37492284E-15,1],"scale":[1.00000024,1.00000024,1]},{"name":"Bone024","translation":[-0.0456394963,-0.0183855984,0.010464238],"rotation":[-1.79124129E-07,2.00197562E-07,0.7071068,0.7071068]},{"name":"Bone026","translation":[-0.0456394665,0.0183856431,0.0104642343],"rotation":[-0.697473764,-0.716471,-0.014129323,5.5682996E-08],"scale":[-1,-1,-1]},{"name":"Bone015","children":[9,10,11],"rotation":[0.707106948,-5.26835775E-09,-5.26835464E-09,0.7071066]},{"name":"Object001","translation":[-0.101089686,0.0106561137,-4.6579357E-10],"rotation":[0.7071068,0,0,0.7071068]},{"name":"sargo","mesh":0,"translation":[-0.101089686,0.0106561137,-4.6579357E-10],"rotation":[0.7071068,0,0,0.7071068]},{"name":"WhiteSeabream","children":[12,13,14],"translation":[-1,2,4]}],"buffers":[{"uri":"WhiteSeabream.bin","byteLength":57456}],"bufferViews":[{"buffer":0,"byteLength":9552},{"buffer":0,"byteLength":39920,"byteOffset":9552,"byteStride":40},{"buffer":0,"byteLength":7984,"byteOffset":49472,"byteStride":8}],"accessors":[{"bufferView":1,"componentType":5126,"count":998,"type":"VEC3","max":[0.124576338,0.09177311,0.07883541],"min":[-0.148165762,-0.09238644,-0.0685213059]},{"bufferView":1,"componentType":5126,"count":998,"type":"VEC3","byteOffset":12},{"bufferView":1,"componentType":5126,"count":998,"type":"VEC4","byteOffset":24},{"bufferView":2,"componentType":5126,"count":998,"type":"VEC2"},{"bufferView":0,"componentType":5123,"count":4776,"type":"SCALAR"}],"images":[{"name":"WhiteSeabream_Normal.png","uri":"WhiteSeabream_Normal.png","mimeType":"image/png"},{"name":"WhiteSeabream_Diffuse.png","uri":"WhiteSeabream_Diffuse.png","mimeType":"image/png"}],"materials":[{"name":"WhiteSeabream","pbrMetallicRoughness":{"metallicFactor":0,"roughnessFactor":0.8,"baseColorTexture":{"index":1}},"normalTexture":{"index":0},"alphaMode":"MASK"}],"meshes":[{"name":"sargo","primitives":[{"attributes":{"POSITION":0,"NORMAL":1,"TANGENT":2,"TEXCOORD_0":3},"indices":4,"material":0}]}],"scene":0,"scenes":[{"name":"WhiteSeabream","nodes":[15]}],"textures":[{"source":0},{"source":1}]}